# xmcd
#
# Track frame offsets:
#	150
#	18472
#	36380
#	52982
#	65542
#	86790
#	104457
#	124612
#	139735
#	156795
#	171542
#	198217
#	213712
#	229820
#	248127
#	264182
#	283882
#
# Disc length: 4146 seconds
#
# Revision: 3
# Processed by: cddbd v1.5.2PL0 Copyright (c) Steve Scherf et al.
# Submitted via: EasyCDDAExtractor 15.3.0.1
#
DISCID=fc103011
DTITLE=Varios Artistas - Top Latino 2
DYEAR=2001
DGENRE=Latin
TTITLE0=Alejandro Fernandez - Quisiera
TTITLE1=Ricky Martin - Solo Quiero Amarte
TTITLE2=Jennifer Lopez - Amor Se Paga Con Amor
TTITLE3=La Oreja De Van Gogh - Cuidate
TTITLE4=Maria Bestar - Pensando En Ti
TTITLE5=Chayanne - Simplemente
TTITLE6=Jaci Velasquez - Como Se Cura Una Herida
TTITLE7=OV7 - Shabadabada
TTITLE8=Daniela Herrero - Solo Tus Canciones
TTITLE9=Andres Cepeda - El Carpintero Del Amor
TTITLE10=Marc Anthony - Muy Dentro De Mi
TTITLE11=Los Rabanes - Señorita A Mi Me Gusta Su Style
TTITLE12=Son By 4 - Cuando Seas Mia
TTITLE13=Huey Dunbar - Yo Si Me Enamore
TTITLE14=Azul Azul - La Bomba
TTITLE15=MDO - Te Quise Olvidar
TTITLE16=Gloria Estefan - Y2 Conga
EXTD=
EXTT0=
EXTT1=
EXTT2=
EXTT3=
EXTT4=
EXTT5=
EXTT6=
EXTT7=
EXTT8=
EXTT9=
EXTT10=
EXTT11=
EXTT12=
EXTT13=
EXTT14=
EXTT15=
EXTT16=
PLAYORDER=
